PathFileType	4	(X/Y/Z)	C:/Users/opensim2020/Desktop/walking_exp_matlab/subject06_walking13_straight_03_cyclic.trc																																																																																																																																																				
DataRate	CameraRate	NumFrames	NumMarkers	Units	OrigDataRate	OrigDataStartFrame	OrigNumFrames																																																																																																																																																
100	100	4	50	mm	100	2235	111																																																																																																																																																
Frame#	Time	LFHD			RFHD			LBHD			RBHD			C7			T10			CLAV			STRN			RBAK			LSHO			LUPA			LELB			LFRM			LWRA			LWRB			LFIN			RSHO			RUPA			RELB			RFRM			RWRA			RWRB			RFIN			LASI			RASI			LPSI			RPSI			LTHI			LKNE			LTIB			LANK			LHEE			LTOE			RTHI			RKNE			RTIB			RANK			RHEE			RTOE			*39			*40			*41			*42			*43			*44			*45			*46			*47			*48			*49		
		X1	Y1	Z1	X2	Y2	Z2	X3	Y3	Z3	X4	Y4	Z4	X5	Y5	Z5	X6	Y6	Z6	X7	Y7	Z7	X8	Y8	Z8	X9	Y9	Z9	X10	Y10	Z10	X11	Y11	Z11	X12	Y12	Z12	X13	Y13	Z13	X14	Y14	Z14	X15	Y15	Z15	X16	Y16	Z16	X17	Y17	Z17	X18	Y18	Z18	X19	Y19	Z19	X20	Y20	Z20	X21	Y21	Z21	X22	Y22	Z22	X23	Y23	Z23	X24	Y24	Z24	X25	Y25	Z25	X26	Y26	Z26	X27	Y27	Z27	X28	Y28	Z28	X29	Y29	Z29	X30	Y30	Z30	X31	Y31	Z31	X32	Y32	Z32	X33	Y33	Z33	X34	Y34	Z34	X35	Y35	Z35	X36	Y36	Z36	X37	Y37	Z37	X38	Y38	Z38	X39	Y39	Z39	X40	Y40	Z40	X41	Y41	Z41	X42	Y42	Z42	X43	Y43	Z43	X44	Y44	Z44	X45	Y45	Z45	X46	Y46	Z46	X47	Y47	Z47	X48	Y48	Z48	X49	Y49	Z49	X50	Y50	Z50
																																																																																																																																																							
28	0.27	-211.19435	1667.87341	-1044.771	-223.49954	1653.0177	-914.14203	-344.573	1618.20911	-1059.68909	-355.51385	1608.17236	-931.30695	-355.88889	1459.34009	-1004.0426	-404.44333	1132.2467	-995.3656	-248.12029	1378.19409	-999.14563	-213.778	1202.28784	-1005.55237	-437.75607	1292.30225	-922.21429	-297.414	1411.72766	-1163.51843	-317.14005	1208.63281	-1231.81128	-335.31	1097.05701	-1241.0293	-324.97321	948.30859	-1268.26135	-264.9696	829.07758	-1236.80688	-331.06577	829.38556	-1266.25574	-296.23022	745.82068	-1273.88977	-296.97522	1412.5592	-840.40942	-312.70999	1216.62012	-744.81317	-278.79117	1099.85498	-724.1557	-221.65018	994.93024	-706.97876	-115.85041	889.34528	-744.13715	-162.09453	871.62494	-699.23059	-98.33198	817.3902	-698.95209	-229.86189	969.45251	-1104.02661	-232.91339	972.1087	-884.85065	-389.75021	994.27173	-1079.65222	-384.05484	999.40967	-911.21893	-228.4019	663.83777	-1177.47363	-174.27808	509.15619	-1157.72571	-263.77747	272.89313	-1153.05359	-306.50363	104.73383	-1117.85376	-343.30292	95.12142	-1066.7511	-177.03159	47.21214	-1134.22241	-293.69211	635.99701	-840.10358	-293.43353	510.6286	-866.75702	-365.29007	250.36568	-877.48309	-394.5372	67.79586	-932.4502	-435.45438	45.11396	-977.81812	-243.51212	32.95821	-930.58173	-315.01279	1707.84521	-993.94617	NaN	NaN	NaN	NaN	NaN	NaN	NaN	NaN	NaN	NaN	NaN	NaN	NaN	NaN	NaN	NaN	NaN	NaN	NaN	NaN	NaN	NaN	NaN	NaN	NaN	NaN	NaN	NaN	NaN	NaN
29	0.28	-201.50757	1666.93359	-1044.81995	-213.90712	1652.22546	-914.13623	-334.91406	1617.31848	-1059.70935	-346.2934	1607.46655	-931.47076	-346.32468	1458.60754	-1003.98572	-395.20865	1131.54773	-994.95209	-238.70607	1377.30859	-998.9834	-204.44849	1201.42188	-1005.1358	-428.40179	1291.79126	-921.92725	-287.48962	1410.5752	-1163.31104	-309.99643	1207.93909	-1231.63391	-330.4368	1096.78772	-1240.53662	-323.30606	947.81549	-1267.81799	-266.45566	827.15594	-1235.53076	-332.22437	829.33862	-1266.1366	-300.18408	744.32928	-1272.46179	-287.59033	1411.98413	-840.3739	-301.29416	1216.39636	-744.02032	-265.62143	1100.22375	-723.03516	-206.19771	996.71698	-705.71381	-97.6674	893.97614	-742.83105	-143.59322	874.90656	-698.04486	-78.38271	822.55225	-697.69415	-220.42128	968.95538	-1103.599	-223.53922	971.39093	-884.44415	-380.35477	993.45007	-1079.30615	-374.30542	998.27222	-911.16626	-218.14339	663.46466	-1177.46375	-162.89603	509.09464	-1157.46167	-241.9238	268.56555	-1152.95325	-276.42767	98.52918	-1118.05176	-313.07889	87.40738	-1067.02637	-144.47963	46.65856	-1133.23596	-286.3779	635.10413	-840.44446	-288.00882	509.74658	-866.90771	-362.65784	250.10649	-877.51538	-394.04865	67.94037	-932.69586	-435.16882	45.3389	-978.00989	-243.14284	32.65941	-930.58649	-305.43005	1707.01843	-994.08112	NaN	NaN	NaN	NaN	NaN	NaN	NaN	NaN	NaN	NaN	NaN	NaN	NaN	NaN	NaN	NaN	NaN	NaN	NaN	NaN	NaN	NaN	NaN	NaN	NaN	NaN	NaN	NaN	NaN	NaN
30	0.29	-191.8483	1665.96362	-1044.98584	-204.20338	1651.37244	-914.30023	-325.30457	1616.33923	-1059.8269	-336.33844	1606.54724	-931.36127	-336.69675	1457.72278	-1004.00287	-385.8692	1130.68127	-994.52075	-229.16939	1376.3114	-998.84686	-195.07506	1200.50964	-1004.78064	-418.98056	1291.05518	-921.72296	-277.56195	1409.51587	-1163.27246	-302.84366	1207.30005	-1231.38611	-325.59933	1096.625	-1240.28455	-321.45703	947.41199	-1267.33276	-267.68832	825.4812	-1233.72778	-332.74954	829.23932	-1265.82532	-303.18686	743.22095	-1271.16821	-278.14709	1411.30432	-840.37872	-289.88062	1216.09009	-743.43292	-252.5612	1100.55005	-722.00153	-190.89893	998.44751	-704.61273	-80.04161	898.35266	-741.64825	-125.51249	878.18079	-697.01611	-59.13442	827.52869	-696.39532	-210.89719	968.27069	-1103.19897	-214.24686	970.3833	-883.935	-370.91846	992.57019	-1078.97217	-364.90204	997.20844	-910.79529	-208.47966	662.79358	-1177.46875	-151.9939	508.71576	-1157.25012	-220.38875	264.51608	-1153.33081	-246.14027	92.81323	-1118.32996	-282.82681	80.27566	-1067.84644	-111.47062	46.93457	-1132.39282	-278.95187	634.15436	-840.75189	-282.37222	508.78867	-867.02722	-359.94427	249.80664	-877.53351	-393.53168	68.03992	-932.89575	-434.95752	45.71501	-978.1189	-242.78659	32.27326	-930.49567	-295.64676	1706.07605	-994.27246	NaN	NaN	NaN	NaN	NaN	NaN	NaN	NaN	NaN	NaN	NaN	NaN	NaN	NaN	NaN	NaN	NaN	NaN	NaN	NaN	NaN	NaN	NaN	NaN	NaN	NaN	NaN	NaN	NaN	NaN
31	0.3	-182.05927	1664.80981	-1045.13672	-194.5188	1650.35974	-914.46991	-315.48972	1615.23169	-1059.95715	-326.65308	1605.57092	-931.52344	-327.09149	1456.75085	-1004.02136	-376.40582	1129.67615	-994.15997	-219.64738	1375.25452	-998.78094	-185.59717	1199.42749	-1004.47015	-409.60025	1290.09961	-921.5459	-267.64349	1408.3833	-1163.21472	-295.82477	1206.71777	-1231.32275	-320.73306	1096.41174	-1240.13977	-319.4454	947.10657	-1266.85962	-269.33765	823.95184	-1232.00732	-333.18539	829.4491	-1265.67456	-305.88791	742.41229	-1269.57056	-268.68222	1410.52454	-840.43921	-278.65045	1215.72363	-742.99475	-239.62732	1100.79907	-721.11316	-175.89815	1000.10339	-703.61646	-62.70925	902.67133	-740.59363	-107.66114	881.40393	-696.06415	-40.1227	832.42719	-695.36157	-201.33641	967.42682	-1102.90027	-204.8511	969.46979	-883.4931	-361.4447	991.56818	-1078.63623	-355.28253	996.09326	-910.4281	-199.04782	661.82184	-1177.45532	-141.58916	508.00986	-1157.03613	-198.61383	260.60666	-1153.58582	-215.63255	87.83649	-1118.65662	-252.10258	73.8232	-1068.13501	-78.22251	48.01776	-1131.38843	-271.47894	633.17474	-841.0343	-276.74661	507.71655	-867.06183	-357.15076	249.54721	-877.45984	-392.92111	68.1948	-933.05994	-434.74344	46.16344	-978.17139	-242.34103	31.89869	-930.42291	-285.88309	1705.08936	-994.53198	NaN	NaN	NaN	NaN	NaN	NaN	NaN	NaN	NaN	NaN	NaN	NaN	NaN	NaN	NaN	NaN	NaN	NaN	NaN	NaN	NaN	NaN	NaN	NaN	NaN	NaN	NaN	NaN	NaN	NaN
